<svg width="392" height="99" viewBox="0 0 392 99" fill="none" xmlns="http://www.w3.org/2000/svg">
<path d="M147.561 31.94V60H139.082L137.923 55.303C134.995 58.841 131.498 60.61 127.431 60.61C125.967 60.61 124.584 60.4067 123.283 60C122.022 59.5933 121.067 59.0037 120.416 58.231C120.05 57.7837 119.765 56.6653 119.562 54.876C119.399 53.0867 119.318 50.362 119.318 46.702V31.94H129.749V46.58C129.749 47.3933 129.769 48.349 129.81 49.447C129.851 50.545 129.973 51.2363 130.176 51.521C130.461 51.9277 131.274 52.131 132.616 52.131L133.592 52.07C134.731 52.0293 135.91 51.765 137.13 51.277V31.94H147.561ZM179.708 33.709C180.074 34.1563 180.338 35.2747 180.501 37.064C180.704 38.8533 180.806 41.578 180.806 45.238V60H170.375V45.36V42.859C170.375 41.5577 170.273 40.7443 170.07 40.419C169.744 40.0123 168.992 39.809 167.813 39.809C167.243 39.809 166.816 39.8293 166.532 39.87C165.393 39.9107 164.214 40.175 162.994 40.663V60H152.563V31.94H161.042L162.201 36.637C165.129 33.099 168.626 31.33 172.693 31.33C174.157 31.33 175.519 31.5333 176.78 31.94C178.081 32.3467 179.057 32.9363 179.708 33.709ZM213.074 28.463C211.691 28.463 210.492 27.9953 209.475 27.06C208.499 26.1247 208.011 25.0063 208.011 23.705C208.011 22.4037 208.499 21.2853 209.475 20.35C210.492 19.4147 211.691 18.947 213.074 18.947C214.457 18.947 215.636 19.4147 216.612 20.35C217.588 21.2853 218.076 22.4037 218.076 23.705C218.076 25.0063 217.588 26.1247 216.612 27.06C215.636 27.9953 214.457 28.463 213.074 28.463ZM218.259 60H207.828V37.918H198.495V60H188.064V37.918H183.489V32.489L188.064 31.94V31.025C188.064 29.2357 188.308 27.5277 188.796 25.901C189.284 24.2743 189.731 23.2983 190.138 22.973C191.399 21.9157 194.083 21.387 198.19 21.387C200.427 21.387 202.928 21.5497 205.693 21.875C205.693 22.363 205.612 23.339 205.449 24.803C205.327 26.267 205.205 27.5073 205.083 28.524L202.46 28.463C200.305 28.463 199.125 28.5647 198.922 28.768C198.637 29.0527 198.495 29.927 198.495 31.391V31.94H218.259V60ZM223.634 23.4L234.065 22.973V60H223.634V23.4ZM252.169 48.471C252.169 49.203 252.19 49.9757 252.23 50.789C252.271 51.5617 252.393 52.0497 252.596 52.253C252.881 52.5377 253.877 52.68 255.585 52.68L257.659 52.619C258.025 54.571 258.208 56.828 258.208 59.39C257.436 59.6747 256.297 59.939 254.792 60.183C253.328 60.427 251.925 60.549 250.583 60.549C247.777 60.549 245.602 59.939 244.056 58.719C242.552 57.4583 241.799 55.5267 241.799 52.924V37.918H237.224V32.367L241.799 31.94L244.544 25.23L252.169 24.803V31.94H258.635V37.918H252.169V48.471ZM278.774 52.68C279.791 52.68 281.682 52.5783 284.447 52.375C284.813 52.375 285.484 52.3343 286.46 52.253L287.375 58.536C284.244 60 280.177 60.732 275.175 60.732C270.498 60.732 266.899 59.5527 264.378 57.194C261.897 54.8353 260.657 51.277 260.657 46.519C260.657 44.079 260.962 41.7203 261.572 39.443C262.223 37.1657 262.955 35.5797 263.768 34.685C264.622 33.7903 266.208 33.0177 268.526 32.367C270.844 31.7163 273.142 31.391 275.419 31.391C279.079 31.391 281.824 32.0417 283.654 33.343C285.484 34.6443 286.684 36.454 287.253 38.772C287.822 41.0493 288.107 44.1197 288.107 47.983C285.342 48.1457 282.637 48.227 279.994 48.227H271.332C271.332 49.5283 271.596 50.5043 272.125 51.155C272.694 51.8057 273.487 52.2327 274.504 52.436C275.521 52.5987 276.944 52.68 278.774 52.68ZM271.942 38.65C271.698 38.772 271.515 39.3007 271.393 40.236C271.271 41.1713 271.19 42.2287 271.149 43.408H274.321C276.232 43.408 277.615 43.3877 278.469 43.347C278.469 41.395 278.184 40.0123 277.615 39.199C277.086 38.3857 276.151 37.979 274.809 37.979C273.711 37.979 272.755 38.2027 271.942 38.65ZM309.163 31.33C309.692 31.33 310.241 31.391 310.81 31.513C311.42 31.635 311.868 31.7773 312.152 31.94C312.152 32.8347 312.051 34.319 311.847 36.393C311.644 38.4263 311.461 39.87 311.298 40.724C310.892 40.6833 310.139 40.663 309.041 40.663C306.479 40.663 304.202 40.8053 302.209 41.09V60H291.778V31.94H300.501L301.721 36.454H301.782C302.962 34.9087 304.222 33.6683 305.564 32.733C306.906 31.7977 308.106 31.33 309.163 31.33ZM331.911 52.68C332.927 52.68 334.818 52.5783 337.584 52.375C337.95 52.375 338.621 52.3343 339.597 52.253L340.512 58.536C337.38 60 333.314 60.732 328.312 60.732C323.635 60.732 320.036 59.5527 317.515 57.194C315.034 54.8353 313.794 51.277 313.794 46.519C313.794 44.079 314.099 41.7203 314.709 39.443C315.359 37.1657 316.091 35.5797 316.905 34.685C317.759 33.7903 319.345 33.0177 321.663 32.367C323.981 31.7163 326.278 31.391 328.556 31.391C332.216 31.391 334.961 32.0417 336.791 33.343C338.621 34.6443 339.82 36.454 340.39 38.772C340.959 41.0493 341.244 44.1197 341.244 47.983C338.478 48.1457 335.774 48.227 333.131 48.227H324.469C324.469 49.5283 324.733 50.5043 325.262 51.155C325.831 51.8057 326.624 52.2327 327.641 52.436C328.657 52.5987 330.081 52.68 331.911 52.68ZM325.079 38.65C324.835 38.772 324.652 39.3007 324.53 40.236C324.408 41.1713 324.326 42.2287 324.286 43.408H327.458C329.369 43.408 330.752 43.3877 331.606 43.347C331.606 41.395 331.321 40.0123 330.752 39.199C330.223 38.3857 329.288 37.979 327.946 37.979C326.848 37.979 325.892 38.2027 325.079 38.65ZM372.853 22.973V60H364.252L363.398 55.303C362.585 56.889 361.385 58.1497 359.799 59.085C358.213 60.0203 356.424 60.488 354.431 60.488C351.259 60.488 348.717 59.3493 346.806 57.072C344.935 54.7947 344 51.3787 344 46.824C344 43.3673 344.407 40.5207 345.22 38.284C346.033 36.0473 346.989 34.441 348.087 33.465C348.778 32.855 350.181 32.3467 352.296 31.94C354.451 31.5333 356.363 31.33 358.03 31.33C359.494 31.33 360.999 31.4723 362.544 31.757C362.422 29.805 362.361 28.7273 362.361 28.524V23.4L372.853 22.973ZM359.006 52.314C360.104 52.314 361.243 52.131 362.422 51.765V38.528C361.243 38.3653 359.941 38.284 358.518 38.284C357.298 38.284 356.525 38.3857 356.2 38.589C355.753 38.9143 355.387 39.8497 355.102 41.395C354.858 42.8997 354.736 44.4857 354.736 46.153C354.736 48.6337 355.102 50.2807 355.834 51.094C356.607 51.9073 357.664 52.314 359.006 52.314ZM383.53 60.488C381.863 60.488 380.48 59.939 379.382 58.841C378.325 57.743 377.796 56.2587 377.796 54.388C377.796 52.7613 378.345 51.399 379.443 50.301C380.582 49.1623 382.005 48.593 383.713 48.593C385.34 48.593 386.702 49.1623 387.8 50.301C388.898 51.399 389.447 52.7613 389.447 54.388C389.447 56.2587 388.898 57.743 387.8 58.841C386.743 59.939 385.32 60.488 383.53 60.488Z" fill="#155DFC"/>
<path d="M56.0756 76.2961C56.8617 76.6528 56.8569 77.7709 56.0679 78.1208L18.928 94.5939C18.2651 94.8879 17.5195 94.4007 17.5226 93.6755L17.6641 60.4139C17.6672 59.6887 18.417 59.2079 19.0773 59.5075L56.0756 76.2961Z" fill="#155DFC"/>
<rect y="1" width="92" height="78" rx="10" fill="#155DFC"/>
</svg>
